<svg width="209" height="106" fill="none" xmlns="http://www.w3.org/2000/svg"><path d="M44.517 78.423c-8.09 0-14.38 6.032-14.38 13.788S36.426 106 44.516 106s14.381-6.033 14.381-13.789c0-7.756-6.292-13.788-14.38-13.788ZM129.905 0h-7.191v16.805h26.965L129.905 0ZM1.375 94.797H19.35s.9-25.854 26.965-25.854c19.324 0 22.47 25.854 22.47 25.854h44.941V0H.476l.898 94.797ZM171.25 78.423c-8.089 0-14.381 6.032-14.381 13.788S163.161 106 171.25 106s14.381-6.033 14.381-13.789c0-7.756-6.741-13.788-14.381-13.788Zm-17.077-56.878h-31.459v73.252h26.965s-3.596-21.545 22.47-21.545c19.774 0 19.324 21.545 19.324 21.545h16.628L209 62.48l-54.827-40.935Zm-4.494 56.016h-17.977v-8.618h17.977v8.618Zm-1.798-15.512-17.976-10.342v-24.13h17.976l46.738 34.472h-46.738Z" fill="#fff" fill-opacity=".4"/></svg>